<svg width="25" height="24" viewBox="0 0 25 24" fill="none" xmlns="http://www.w3.org/2000/svg">
<path d="M12.5215 2.8125C12.7295 2.00692 13.1995 1.29338 13.8575 0.784213C14.5156 0.275046 15.3242 -0.000833469 16.1562 1.89152e-06H16.25C16.4489 1.89152e-06 16.6396 0.0790195 16.7803 0.219672C16.9209 0.360324 17 0.55109 17 0.750002C17 0.948914 16.9209 1.13968 16.7803 1.28033C16.6396 1.42098 16.4489 1.5 16.25 1.5H16.1562C15.6574 1.49996 15.1726 1.6657 14.7783 1.97116C14.3839 2.27662 14.1022 2.70449 13.9775 3.1875C13.9277 3.3802 13.8035 3.54525 13.6321 3.64634C13.4607 3.74744 13.2561 3.77629 13.0634 3.72656C12.8707 3.67684 12.7057 3.5526 12.6046 3.38118C12.5035 3.20976 12.4746 3.0052 12.5243 2.8125H12.5215ZM21.4343 15.8991C21.3781 15.7705 21.2872 15.6602 21.1718 15.5803C19.5809 14.4872 19.25 12.6225 19.25 11.25C19.25 9.59344 20.5128 8.15063 21.2656 7.43719C21.3396 7.3671 21.3986 7.28265 21.4389 7.189C21.4792 7.09535 21.5 6.99446 21.5 6.8925C21.5 6.79054 21.4792 6.68966 21.4389 6.59601C21.3986 6.50235 21.3396 6.4179 21.2656 6.34781C20.0768 5.22563 18.1081 4.5 16.25 4.5C14.9152 4.50119 13.6106 4.89683 12.5 5.63719C11.2045 4.76847 9.64672 4.37832 8.09467 4.53385C6.54262 4.68938 5.09328 5.38086 3.9959 6.48938C3.33987 7.15912 2.82514 7.95387 2.48226 8.82643C2.13939 9.69899 1.97538 10.6316 1.99997 11.5688C2.03677 13.1506 2.38851 14.7093 3.03465 16.1537C3.68078 17.5981 4.60833 18.8992 5.76309 19.9809C6.45853 20.638 7.37979 21.0028 8.33653 21H16.5565C17.068 21.001 17.5743 20.8969 18.0439 20.6942C18.5135 20.4915 18.9364 20.1945 19.2865 19.8216C19.9351 19.1236 20.4961 18.3491 20.9572 17.5153C21.6153 16.3125 21.5309 16.125 21.4343 15.8991Z" fill="#0A0F1A" fill-opacity="0.76"/>
</svg>
