<svg width="48" height="48" viewBox="0 0 48 48" fill="none" xmlns="http://www.w3.org/2000/svg">
<circle cx="24" cy="24" r="8.45528" fill="#0F5DE2"/>
<path d="M46.1684 33.1961C47.1878 30.7387 47.7687 28.2088 47.9469 25.6934C48.4071 19.1981 43.0876 14.2439 37.0729 11.7489L30.2555 8.92078C38.5835 12.3755 42.5341 21.9273 39.0794 30.2553C38.2759 32.1922 38.9187 34.6248 40.8556 35.4283L41.4152 35.6605C43.0684 36.3463 45.004 35.7526 45.7582 34.1295C45.9008 33.8227 46.0376 33.5115 46.1684 33.1961Z" fill="#0F5DE2"/>
<path d="M2.24211 13.8705C2.99632 12.2474 4.9319 11.6537 6.58509 12.3395L7.14474 12.5717C9.08159 13.3752 9.72441 15.8078 8.92094 17.7447C5.46621 26.0727 9.41679 35.6245 17.7448 39.0792L10.9274 36.2511C4.91277 33.7561 -0.406759 28.8019 0.053447 22.3066C0.231664 19.7912 0.812485 17.2613 1.8319 14.8039C1.96275 14.4885 2.09955 14.1773 2.24211 13.8705Z" fill="#0F5DE2"/>
</svg>
