<svg width="32" height="32" viewBox="0 0 32 32" fill="none" xmlns="http://www.w3.org/2000/svg">
<path d="M27.5212 12.5L25.3575 8.75001C24.8934 7.94638 24.1291 7.35996 23.2328 7.1197C22.3364 6.87943 21.3813 7.00499 20.5775 7.46876C20.1293 7.72775 19.7448 8.084 19.4525 8.51126L17.275 4.75001C16.9677 4.21845 16.5259 3.7771 15.9941 3.47026C15.4622 3.16342 14.859 3.00189 14.245 3.00189C13.631 3.00189 13.0278 3.16342 12.4959 3.47026C11.9641 3.7771 11.5223 4.21845 11.215 4.75001C10.5758 4.24673 9.78132 3.98183 8.96803 4.00082C8.15473 4.01982 7.37346 4.32153 6.75849 4.85409C6.14352 5.38666 5.73328 6.11682 5.59828 6.91905C5.46328 7.72129 5.61195 8.5455 6.01874 9.25001L6.21749 9.59501C5.7003 9.63512 5.19876 9.79105 4.74999 10.0513C3.94624 10.5156 3.35985 11.2801 3.1198 12.1768C2.87976 13.0734 3.00572 14.0287 3.46999 14.8325L8.47 23.4975C9.18935 24.7507 10.15 25.8489 11.2963 26.7286C12.4427 27.6082 13.7521 28.252 15.1487 28.6225C16.0833 28.8721 17.0465 28.9982 18.0137 28.9975C19.9431 28.9942 21.8376 28.4835 23.5072 27.5168C25.1768 26.55 26.5627 25.161 27.5259 23.4894C28.4892 21.8177 28.9958 19.9221 28.995 17.9928C28.9941 16.0635 28.4859 14.1683 27.5212 12.4975V12.5ZM26.6887 20.33C26.2277 22.049 25.2674 23.5927 23.9292 24.766C22.591 25.9393 20.9349 26.6894 19.1704 26.9217C17.4059 27.1539 15.6122 26.8578 14.0159 26.0708C12.4197 25.2838 11.0926 24.0411 10.2025 22.5L5.20249 13.835C5.01216 13.4911 4.96444 13.0862 5.0696 12.7074C5.17476 12.3287 5.4244 12.0063 5.7648 11.8097C6.1052 11.6132 6.50917 11.5581 6.88979 11.6563C7.2704 11.7545 7.59724 11.9982 7.79999 12.335L10.2037 16.5C10.2675 16.6174 10.3541 16.7208 10.4584 16.8041C10.5627 16.8875 10.6827 16.9491 10.8112 16.9853C10.9397 17.0215 11.0742 17.0317 11.2067 17.0151C11.3392 16.9985 11.4671 16.9555 11.5827 16.8887C11.6983 16.8219 11.7994 16.7327 11.88 16.6262C11.9606 16.5197 12.019 16.3981 12.0518 16.2687C12.0847 16.1393 12.0913 16.0046 12.0712 15.8725C12.0511 15.7405 12.0048 15.6138 11.935 15.5L7.74999 8.25001C7.6472 8.07928 7.57947 7.88978 7.55073 7.69257C7.522 7.49537 7.53286 7.29442 7.58266 7.10146C7.63246 6.90849 7.72022 6.72739 7.8408 6.56872C7.96137 6.41006 8.11236 6.27701 8.28494 6.17735C8.45752 6.07769 8.64822 6.01342 8.84591 5.98829C9.04361 5.96316 9.24433 5.97768 9.43635 6.03099C9.62837 6.0843 9.80785 6.17535 9.96429 6.2988C10.1207 6.42225 10.251 6.57564 10.3475 6.75001L14.25 13.5C14.3137 13.6174 14.4003 13.7208 14.5046 13.8041C14.609 13.8875 14.7289 13.9491 14.8575 13.9853C14.986 14.0215 15.1205 14.0317 15.253 14.0151C15.3855 13.9985 15.5133 13.9555 15.629 13.8887C15.7446 13.8219 15.8457 13.7327 15.9263 13.6262C16.0068 13.5197 16.0653 13.3981 16.0981 13.2687C16.1309 13.1393 16.1375 13.0046 16.1174 12.8725C16.0974 12.7405 16.0511 12.6138 15.9812 12.5L12.9462 7.25001C12.8435 7.07928 12.7757 6.88978 12.747 6.69257C12.7183 6.49537 12.7291 6.29442 12.7789 6.10146C12.8287 5.9085 12.9165 5.72739 13.037 5.56872C13.1576 5.41006 13.3086 5.27701 13.4812 5.17735C13.6538 5.07769 13.8445 5.01342 14.0422 4.98829C14.2399 4.96316 14.4406 4.97768 14.6326 5.03099C14.8246 5.0843 15.0041 5.17535 15.1605 5.2988C15.317 5.42225 15.4472 5.57564 15.5437 5.75001L19.7212 12.9875C18.7482 13.9756 18.1475 15.2702 18.0212 16.6512C17.895 18.0323 18.251 19.4144 19.0287 20.5625C19.1779 20.782 19.4082 20.9332 19.6689 20.9829C19.9295 21.0326 20.1993 20.9767 20.4187 20.8275C20.6382 20.6783 20.7894 20.4481 20.8391 20.1874C20.8888 19.9267 20.8329 19.657 20.6837 19.4375C20.1094 18.587 19.884 17.5482 20.0541 16.5362C20.2241 15.5241 20.7767 14.6161 21.5975 14C21.7931 13.8533 21.9283 13.6401 21.9773 13.4005C22.0264 13.161 21.986 12.9118 21.8637 12.7L21.0287 11.25C20.9226 11.0793 20.8518 10.8889 20.8206 10.6902C20.7895 10.4916 20.7986 10.2887 20.8474 10.0936C20.8962 9.89857 20.9838 9.71531 21.1048 9.55475C21.2259 9.3942 21.378 9.25963 21.5521 9.15903C21.7262 9.05844 21.9188 8.99388 22.1183 8.96919C22.3179 8.9445 22.5204 8.96019 22.7138 9.01532C22.9071 9.07045 23.0875 9.1639 23.244 9.29011C23.4005 9.41633 23.5301 9.57272 23.625 9.75001L25.7887 13.5C26.3824 14.5221 26.7676 15.6518 26.9221 16.8237C27.0766 17.9956 26.9973 19.1865 26.6887 20.3275V20.33ZM23.0312 3.96376C23.0985 3.70768 23.2646 3.48874 23.4931 3.35494C23.7215 3.22114 23.9937 3.1834 24.25 3.25001C25.2051 3.50171 26.1006 3.94075 26.8845 4.5416C27.6684 5.14246 28.325 5.89314 28.8162 6.75001L28.8575 6.82126C28.9273 6.93509 28.9736 7.06176 28.9937 7.19378C29.0138 7.3258 29.0072 7.4605 28.9743 7.58994C28.9415 7.71938 28.8831 7.84093 28.8025 7.94742C28.7219 8.05392 28.6208 8.14319 28.5052 8.20998C28.3896 8.27678 28.2617 8.31973 28.1292 8.33632C27.9967 8.3529 27.8622 8.34278 27.7337 8.30655C27.6052 8.27032 27.4852 8.20871 27.3809 8.12536C27.2766 8.04201 27.19 7.93861 27.1262 7.82126L27.085 7.75001C26.7245 7.12204 26.2426 6.57208 25.6675 6.13214C25.0923 5.69221 24.4354 5.3711 23.735 5.18751C23.4797 5.11813 23.2622 4.95039 23.1303 4.72101C22.9984 4.49164 22.9628 4.21934 23.0312 3.96376ZM10.1112 29.625C9.94707 29.8331 9.707 29.9675 9.44378 29.9987C9.18056 30.0298 8.91574 29.9552 8.7075 29.7913C7.21181 28.6099 5.95591 27.1533 5.00749 25.5C4.94183 25.3862 4.89922 25.2607 4.88209 25.1304C4.86496 25.0002 4.87365 24.8679 4.90766 24.741C4.94167 24.6142 5.00033 24.4952 5.08031 24.391C5.16028 24.2868 5.25999 24.1994 5.37374 24.1338C5.4875 24.0681 5.61308 24.0255 5.7433 24.0084C5.87353 23.9912 6.00585 23.9999 6.13272 24.0339C6.25959 24.0679 6.37852 24.1266 6.48271 24.2066C6.58691 24.2865 6.67433 24.3862 6.73999 24.5C7.56201 25.9311 8.64984 27.1921 9.94499 28.215C10.0489 28.2964 10.1357 28.3975 10.2004 28.5125C10.2651 28.6276 10.3063 28.7543 10.3218 28.8854C10.3372 29.0165 10.3266 29.1493 10.2904 29.2762C10.2543 29.4032 10.1934 29.5217 10.1112 29.625Z" fill="#0F5DE2" fill-opacity="0.25"/>
</svg>
